<?xml version="1.0" encoding="UTF-8" standalone="no"?>
<!DOCTYPE svg PUBLIC "-//W3C//DTD SVG 1.1//EN" "http://www.w3.org/Graphics/SVG/1.1/DTD/svg11.dtd">
<svg width="100%" height="100%" viewBox="0 0 41 41" version="1.1" xmlns="http://www.w3.org/2000/svg" xmlns:xlink="http://www.w3.org/1999/xlink" xml:space="preserve" xmlns:serif="http://www.serif.com/" style="fill-rule:evenodd;clip-rule:evenodd;stroke-linejoin:round;stroke-miterlimit:2;">
    <g>
        <path d="M28.229,12.072L36.157,20L20,36.157L18.241,34.399L15.854,36.786L18.408,39.341C19.287,40.22 20.713,40.22 21.592,39.341L39.341,21.592C40.22,20.713 40.22,19.287 39.341,18.408L29.651,8.719L28.229,12.072ZM27.934,7.002L26.512,10.355L23.521,7.364L25.909,4.977L27.934,7.002ZM24.317,3.385L21.592,0.659C20.713,-0.22 19.287,-0.22 18.408,0.659L0.659,18.408C-0.22,19.287 -0.22,20.713 0.659,21.592L11.063,31.995L12.587,28.744L3.843,20L20,3.843L21.93,5.772L24.317,3.385ZM12.755,33.688L14.279,30.437L16.65,32.807L14.262,35.195L12.755,33.688Z" style="fill:rgb(234,89,55);"/>
        <g>
            <path d="M29.788,2.63C30.029,2.061 29.309,1.575 28.872,2.013L9.533,21.352L17.411,21.352L11.142,36.785C10.911,37.353 11.627,37.829 12.061,37.395L30.918,18.538L23.039,18.538L29.788,2.63Z" style="fill:rgb(234,89,55);fill-rule:nonzero;"/>
        </g>
    </g>
</svg>
